<svg width="62" height="50" viewBox="0 0 62 50" fill="none" xmlns="http://www.w3.org/2000/svg">
<path d="M22.7852 4.16064H39.3829V33.984H22.7852V4.16064Z" fill="#FF5F00"/>
<path d="M11.5624 48.9951V45.8338C11.5624 44.6216 10.8246 43.8315 9.55991 43.8315C8.92769 43.8315 8.24266 44.0422 7.76837 44.7273C7.39969 44.1476 6.87284 43.8315 6.08243 43.8315C5.55534 43.8315 5.02873 43.9894 4.607 44.5691V43.9369H3.50049V48.9951H4.607V46.2025C4.607 45.3069 5.08129 44.8852 5.81913 44.8852C6.55648 44.8852 6.92564 45.3595 6.92564 46.2025V48.9951H8.03216V46.2025C8.03216 45.3069 8.55877 44.8852 9.2438 44.8852C9.98164 44.8852 10.3503 45.3595 10.3503 46.2025V48.9951H11.5624ZM27.9492 43.9369H26.1579V42.4089H25.0514V43.9369H24.0502V44.9378H25.0511V47.2564C25.0511 48.4157 25.5254 49.1005 26.7901 49.1005C27.2644 49.1005 27.791 48.9426 28.1602 48.7318L27.8438 47.7833C27.5277 47.994 27.159 48.0468 26.8955 48.0468C26.3686 48.0468 26.1579 47.7307 26.1579 47.2036V44.9378H27.9492V43.9369ZM37.3284 43.8312C36.6962 43.8312 36.2747 44.1476 36.0111 44.5691V43.9369H34.9046V48.9951H36.0111V46.1499C36.0111 45.3069 36.3798 44.8326 37.0648 44.8326C37.2756 44.8326 37.5391 44.8854 37.7499 44.938L38.066 43.8843C37.8552 43.8315 37.5391 43.8315 37.3284 43.8315V43.8312ZM23.1544 44.3583C22.6273 43.9894 21.8897 43.8315 21.0993 43.8315C19.8349 43.8315 18.9919 44.4637 18.9919 45.4649C18.9919 46.3081 19.6242 46.7821 20.7307 46.9403L21.2575 46.9931C21.8372 47.0982 22.1533 47.2564 22.1533 47.5199C22.1533 47.8886 21.7318 48.1522 20.994 48.1522C20.2564 48.1522 19.6767 47.8886 19.3078 47.6253L18.7809 48.4683C19.3606 48.8898 20.151 49.1005 20.9412 49.1005C22.4166 49.1005 23.2598 48.4157 23.2598 47.4671C23.2598 46.5714 22.5748 46.0971 21.5208 45.9391L20.994 45.8863C20.5197 45.8335 20.151 45.7284 20.151 45.4123C20.151 45.0434 20.5197 44.8326 21.0993 44.8326C21.7318 44.8326 22.364 45.0959 22.6801 45.2541L23.1544 44.3583ZM52.5563 43.8315C51.9238 43.8315 51.5023 44.1476 51.2388 44.5691V43.9369H50.1323V48.9951H51.2388V46.1499C51.2388 45.3069 51.6077 44.8326 52.2925 44.8326C52.5035 44.8326 52.767 44.8854 52.9778 44.938L53.2939 43.8843C53.0831 43.8315 52.767 43.8315 52.5563 43.8315ZM38.4349 46.466C38.4349 47.994 39.4886 49.1005 41.1222 49.1005C41.8598 49.1005 42.3867 48.9426 42.9135 48.5211L42.3867 47.6253C41.9652 47.9414 41.5437 48.0994 41.0694 48.0994C40.1736 48.0994 39.5414 47.4671 39.5414 46.466C39.5414 45.5177 40.1736 44.8852 41.0694 44.8326C41.5437 44.8326 41.9652 44.9906 42.3867 45.3069L42.9135 44.4111C42.3867 43.9894 41.8598 43.8315 41.1222 43.8315C39.4886 43.8315 38.4349 44.938 38.4349 46.466ZM48.6571 46.466V43.9369H47.5506V44.5691C47.1816 44.095 46.6548 43.8315 45.9698 43.8315C44.5471 43.8315 43.4406 44.938 43.4406 46.466C43.4406 47.994 44.5471 49.1005 45.9698 49.1005C46.7074 49.1005 47.2344 48.8372 47.5506 48.3629V48.9951H48.6571V46.466ZM44.5997 46.466C44.5997 45.5702 45.1794 44.8326 46.1277 44.8326C47.0235 44.8326 47.6559 45.5177 47.6559 46.466C47.6559 47.3618 47.0235 48.0994 46.1277 48.0994C45.1794 48.0466 44.5997 47.3618 44.5997 46.466ZM31.3743 43.8315C29.8989 43.8315 28.8449 44.8852 28.8449 46.466C28.8449 48.0468 29.8987 49.1005 31.4269 49.1005C32.1645 49.1005 32.9023 48.8898 33.482 48.4157L32.9549 47.6253C32.5334 47.9414 32.0066 48.1522 31.4797 48.1522C30.7947 48.1522 30.1096 47.8361 29.9515 46.94H33.6927V46.5188C33.7455 44.8852 32.797 43.8315 31.3741 43.8315H31.3743ZM31.3743 44.7798C32.0591 44.7798 32.5336 45.2015 32.6388 45.9919H30.0043C30.1096 45.3069 30.5839 44.7798 31.3743 44.7798ZM58.8264 46.466V41.9346H57.7199V44.5691C57.351 44.095 56.8242 43.8315 56.1391 43.8315C54.7165 43.8315 53.61 44.938 53.61 46.466C53.61 47.994 54.7165 49.1005 56.1391 49.1005C56.877 49.1005 57.4038 48.8372 57.7199 48.3629V48.9951H58.8264V46.466ZM54.7693 46.466C54.7693 45.5702 55.3487 44.8326 56.2973 44.8326C57.1931 44.8326 57.8253 45.5177 57.8253 46.466C57.8253 47.3618 57.1931 48.0994 56.2973 48.0994C55.3487 48.0466 54.7693 47.3618 54.7693 46.466ZM17.7798 46.466V43.9369H16.6733V44.5691C16.3044 44.095 15.7775 43.8315 15.0925 43.8315C13.6699 43.8315 12.5633 44.938 12.5633 46.466C12.5633 47.994 13.6699 49.1005 15.0925 49.1005C15.8303 49.1005 16.3572 48.8372 16.6733 48.3629V48.9951H17.7798V46.466ZM13.6699 46.466C13.6699 45.5702 14.2495 44.8326 15.1979 44.8326C16.0936 44.8326 16.7261 45.5177 16.7261 46.466C16.7261 47.3618 16.0936 48.0994 15.1979 48.0994C14.2495 48.0466 13.6699 47.3618 13.6699 46.466Z" fill="white"/>
<path d="M23.8389 19.0724C23.8389 13.013 26.6841 7.63837 31.0574 4.16066C27.8435 1.63151 23.7863 0.103516 19.3603 0.103516C8.87431 0.103516 0.391113 8.58671 0.391113 19.0724C0.391113 29.5579 8.87431 38.0414 19.36 38.0414C23.7861 38.0414 27.8432 36.5134 31.0574 33.984C26.6841 30.5591 23.8389 25.1319 23.8389 19.0724Z" fill="#EB001B"/>
<path d="M61.7761 19.0724C61.7761 29.5579 53.293 38.0414 42.8072 38.0414C38.3812 38.0414 34.324 36.5134 31.1099 33.984C35.5359 30.5065 38.3286 25.1319 38.3286 19.0724C38.3286 13.013 35.4831 7.63837 31.1099 4.16066C34.3238 1.63151 38.3812 0.103516 42.8072 0.103516C53.293 0.103516 61.7764 8.63952 61.7764 19.0724H61.7761Z" fill="#F79E1B"/>
</svg>
