<svg width="147" height="49" viewBox="0 0 147 49" fill="none" xmlns="http://www.w3.org/2000/svg">
<path d="M58.8599 0.814941L51.3892 48.2875H63.3374L70.8143 0.814941H58.8599Z" fill="white"/>
<path d="M41.3735 0.869847L29.6711 33.2448L28.4234 28.3564C26.1155 22.4664 19.5636 14.0075 11.8716 8.67656L22.5722 48.2659L35.215 48.2426L54.0317 0.859863L41.3735 0.869847Z" fill="white"/>
<path d="M23.8843 4.26644C23.1898 1.37469 21.1769 0.512826 18.6784 0.409668H0.153656L0 1.35473C14.416 5.14162 23.955 14.2661 27.9131 25.2374L23.8843 4.26644Z" fill="white"/>
<path d="M95.0301 9.91647C98.9392 9.84991 101.773 10.775 103.973 11.7334L105.052 12.2824L106.668 1.99327C104.302 1.03158 100.592 0 95.9644 0C84.1574 0 75.8354 6.43904 75.7709 15.6667C75.6941 22.4851 81.699 26.292 86.2349 28.5648C90.8907 30.8941 92.4518 32.3749 92.4303 34.4547C92.3934 37.6327 88.718 39.0902 85.2853 39.0902C80.5004 39.0902 77.959 38.3747 74.0346 36.6044L72.495 35.8457L70.814 46.471C73.6105 47.7987 78.7703 48.9401 84.1267 49C96.6866 49 104.849 42.6375 104.935 32.7776C104.987 27.3834 101.8 23.2671 94.8949 19.8895C90.7155 17.6866 88.1587 16.2224 88.1832 13.9995C88.1832 12.0262 90.3529 9.91647 95.0301 9.91647Z" fill="white"/>
<path d="M137.332 0.870605H128.1C125.233 0.870605 123.1 1.71583 121.84 4.81057L104.099 48.3166H116.647C116.647 48.3166 118.693 42.4665 119.157 41.1854C120.531 41.1854 132.722 41.2053 134.458 41.2053C134.815 42.8625 135.915 48.3166 135.915 48.3166H147L137.332 0.870605ZM122.596 31.4686C123.58 28.7432 127.356 18.2011 127.356 18.2011C127.292 18.3309 128.331 15.4558 128.948 13.6688L129.754 17.7619C129.754 17.7619 132.043 29.0959 132.522 31.4686H122.596Z" fill="white"/>
</svg>
