<svg width="110" height="71" viewBox="0 0 110 71" xmlns="http://www.w3.org/2000/svg"
     class="sc-iBaPrD dTdMvb sc-dOSReg dymkkb">
    <path d="M0 0V48.7052C0 60.9937 9.96358 71 22.3301 71C34.6967 71 44.6603 61.0522 44.6603 48.7052V0H0Z"
          fill="#FEB95A" class="logo-fill"/>
    <path d="M16.7622 52.8597C15.3556 51.4554 14.4764 49.5243 14.4764 47.3592C14.4764 43.029 17.993 39.5765 22.2714 39.5765C24.44 39.5765 26.3741 40.4542 27.7807 41.8586L31.8247 37.821C29.3632 35.3633 26.0224 33.9004 22.2714 33.9004C14.8281 33.9004 8.79132 39.9276 8.79132 47.3592C8.79132 51.1042 10.3152 54.4397 12.7182 56.8974L16.7622 52.8597Z"
          fill="#FFFFFF" class="logo-fill-inner"/>
    <path d="M28.7185 51.8065C27.3119 53.7961 24.9676 55.1419 22.3302 55.1419C21.8612 55.1419 21.3338 55.0834 20.8649 55.0249L16.4106 59.4722C18.1688 60.3499 20.2202 60.8181 22.3302 60.8181C26.9017 60.8181 30.9457 58.5359 33.4072 55.0249L28.7185 51.8065Z"
          fill="#FFFFFF" class="logo-fill-inner"/>
    <path d="M60.8159 62.5381C59.6597 61.8784 58.7237 60.9439 58.063 59.6246C57.4022 58.3602 57.0719 56.821 57.0719 55.0619C57.0719 53.3028 57.4023 51.7636 58.1181 50.4443C58.8338 49.125 59.7698 48.1355 60.926 47.4758C62.0822 46.7612 63.4037 46.4314 64.7801 46.4314C65.7712 46.4314 66.7072 46.6512 67.5331 47.0361C68.3589 47.4209 69.0747 47.9156 69.6803 48.5752L67.8083 50.7741C67.3678 50.3344 66.8723 50.0046 66.4319 49.7846C65.9363 49.5647 65.4408 49.4548 64.8352 49.4548C64.0093 49.4548 63.2936 49.6747 62.6879 50.1145C62.0272 50.5542 61.5317 51.2139 61.2013 52.0385C60.8159 52.8631 60.6507 53.8526 60.6507 54.952C60.6507 56.7111 61.0362 58.0304 61.7519 59.0199C62.5227 60.0093 63.5137 60.5041 64.7801 60.5041C66.0465 60.5041 67.1477 59.9544 68.0837 58.9099L69.9557 61.0538C68.5792 62.648 66.8172 63.4726 64.67 63.4726C63.2385 63.5276 61.9722 63.1977 60.8159 62.5381Z"
          fill="black" class="logo-text"/>
    <path d="M74.8007 62.5381C73.5894 61.8784 72.6534 60.9439 71.9377 59.6246C71.2218 58.3602 70.8915 56.821 70.8915 55.0619C70.8915 53.3028 71.2218 51.7636 71.9377 50.4443C72.6534 49.125 73.5894 48.1355 74.8007 47.4758C76.012 46.7612 77.3333 46.4314 78.8199 46.4314C80.8021 46.4314 82.5639 47.146 83.94 48.5752L82.1234 50.7741C81.6279 50.3344 81.1875 50.0046 80.6919 49.7846C80.1964 49.5647 79.5908 49.4548 78.9851 49.4548C77.6087 49.4548 76.5075 49.9496 75.6816 50.9391C74.8558 51.9286 74.4703 53.2478 74.4703 54.952C74.4703 56.7111 74.8558 58.0853 75.6816 59.0748C76.5075 60.0643 77.6638 60.5041 79.2604 60.5041C79.6458 60.5041 79.9762 60.4491 80.3616 60.3391C80.6919 60.2292 81.0223 60.1193 81.2425 59.9544V56.876H78.3244V54.0724H84.2708V61.5486C83.665 62.1532 82.8943 62.593 81.9583 62.9778C81.0223 63.3626 79.9762 63.5276 78.875 63.5276C77.3333 63.5276 76.012 63.1977 74.8007 62.5381Z"
          fill="black" class="logo-text"/>
    <path d="M86.9133 48.3002C86.5283 47.9703 86.3633 47.5305 86.3633 46.9808C86.3633 46.4311 86.5283 45.9913 86.9133 45.6615C87.2992 45.3317 87.7392 45.1667 88.29 45.1667C88.8408 45.1667 89.3367 45.3317 89.6667 45.6615C90.0517 45.9913 90.2175 46.4311 90.2175 46.9808C90.2175 47.5305 90.0517 47.9703 89.6667 48.3002C89.2808 48.6299 88.8408 48.7948 88.29 48.7948C87.7392 48.7948 87.2442 48.6299 86.9133 48.3002ZM86.5833 50.7189H89.9967V63.1974H86.5833V50.7189Z"
          fill="black" class="logo-text"/>
    <path d="M97.21 49.7839V50.7184H99.5217V53.4669H97.21V63.2519H93.7408V53.4669H92.0892V50.8833L93.7408 50.7734V49.8938C93.7408 48.4645 94.1267 47.3651 94.8417 46.4855C95.5575 45.606 96.6592 45.2212 98.2008 45.2212C99.0817 45.2212 99.9075 45.3861 100.623 45.661L100.018 48.1897C99.5775 48.0248 99.1367 47.9149 98.6958 47.9149C97.705 47.9149 97.21 48.5195 97.21 49.7839Z"
          fill="black" class="logo-text"/>
    <path d="M103.982 62.3179C103.321 61.4933 102.991 60.3389 102.991 58.7997V53.4674H101.229V50.8838L103.156 50.7189L103.542 47.3656H106.404V50.7189H109.487V53.4674H106.404V58.7447C106.404 60.1189 106.955 60.7786 108.056 60.7786C108.387 60.7786 108.827 60.6687 109.267 60.5038L109.818 63.0324C108.882 63.3623 108.001 63.4723 107.12 63.4723C105.743 63.5272 104.697 63.1424 103.982 62.3179Z"
          fill="black" class="logo-text"/>
</svg>
