<svg width="858" height="858" viewBox="0 0 858 858" fill="none" xmlns="http://www.w3.org/2000/svg"
     class="sc-cTkwdZ OhzNh">
    <g opacity="0.89">
        <g opacity="0.89">
            <path opacity="0.89"
                  d="M428.79 856.92C665.284 856.92 857 665.204 857 428.71C857 192.216 665.284 0.5 428.79 0.5C192.296 0.5 0.579834 192.216 0.579834 428.71C0.579834 665.204 192.296 856.92 428.79 856.92Z"
                  stroke="url(#paint0_linear)" stroke-width="0.8127" stroke-linecap="round"
                  stroke-linejoin="round"></path>
        </g>
        <g opacity="0.89">
            <path opacity="0.89"
                  d="M428.79 825.691C648.037 825.691 825.771 647.957 825.771 428.71C825.771 209.464 648.037 31.7292 428.79 31.7292C209.544 31.7292 31.8091 209.464 31.8091 428.71C31.8091 647.957 209.544 825.691 428.79 825.691Z"
                  stroke="url(#paint1_linear)" stroke-width="0.9493" stroke-linecap="round"
                  stroke-linejoin="round"></path>
        </g>
        <g opacity="0.89">
            <path opacity="0.89"
                  d="M428.79 794.462C630.789 794.462 794.542 630.71 794.542 428.71C794.542 226.711 630.789 62.9586 428.79 62.9586C226.791 62.9586 63.0381 226.711 63.0381 428.71C63.0381 630.71 226.791 794.462 428.79 794.462Z"
                  stroke="url(#paint2_linear)" stroke-width="1.0859" stroke-linecap="round"
                  stroke-linejoin="round"></path>
        </g>
        <g opacity="0.89">
            <path opacity="0.89"
                  d="M428.79 763.232C613.542 763.232 763.312 613.461 763.312 428.71C763.312 243.958 613.542 94.1873 428.79 94.1873C244.038 94.1873 94.2671 243.958 94.2671 428.71C94.2671 613.461 244.038 763.232 428.79 763.232Z"
                  stroke="url(#paint3_linear)" stroke-width="1.2225" stroke-linecap="round"
                  stroke-linejoin="round"></path>
        </g>
        <g opacity="0.89">
            <path opacity="0.89"
                  d="M428.79 732.003C596.294 732.003 732.083 596.214 732.083 428.71C732.083 261.206 596.294 125.417 428.79 125.417C261.286 125.417 125.496 261.206 125.496 428.71C125.496 596.214 261.286 732.003 428.79 732.003Z"
                  stroke="url(#paint4_linear)" stroke-width="1.3591" stroke-linecap="round"
                  stroke-linejoin="round"></path>
        </g>
        <g opacity="0.89">
            <path opacity="0.89"
                  d="M428.79 700.774C579.047 700.774 700.854 578.967 700.854 428.71C700.854 278.453 579.047 156.646 428.79 156.646C278.533 156.646 156.726 278.453 156.726 428.71C156.726 578.967 278.533 700.774 428.79 700.774Z"
                  stroke="url(#paint5_linear)" stroke-width="1.4956" stroke-linecap="round"
                  stroke-linejoin="round"></path>
        </g>
        <g opacity="0.89">
            <path opacity="0.89"
                  d="M428.79 669.545C561.8 669.545 669.625 561.72 669.625 428.71C669.625 295.701 561.8 187.875 428.79 187.875C295.781 187.875 187.955 295.701 187.955 428.71C187.955 561.72 295.781 669.545 428.79 669.545Z"
                  stroke="url(#paint6_linear)" stroke-width="1.4956" stroke-linecap="round"
                  stroke-linejoin="round"></path>
        </g>
        <g opacity="0.89">
            <path opacity="0.89"
                  d="M428.79 638.316C544.552 638.316 638.396 544.473 638.396 428.71C638.396 312.948 544.552 219.104 428.79 219.104C313.028 219.104 219.184 312.948 219.184 428.71C219.184 544.473 313.028 638.316 428.79 638.316Z"
                  stroke="url(#paint7_linear)" stroke-width="1.4956" stroke-linecap="round"
                  stroke-linejoin="round"></path>
        </g>
        <g opacity="0.89">
            <path opacity="0.89"
                  d="M428.79 607.14C527.334 607.14 607.219 527.254 607.219 428.71C607.219 330.166 527.334 250.28 428.79 250.28C330.246 250.28 250.36 330.166 250.36 428.71C250.36 527.254 330.246 607.14 428.79 607.14Z"
                  stroke="#FEB95A" stroke-width="1.9054" stroke-linecap="round" stroke-linejoin="round"></path>
        </g>
        <g opacity="0.89">
            <path opacity="0.89"
                  d="M428.79 575.91C510.086 575.91 575.99 510.007 575.99 428.71C575.99 347.413 510.086 281.509 428.79 281.509C347.493 281.509 281.589 347.413 281.589 428.71C281.589 510.007 347.493 575.91 428.79 575.91Z"
                  stroke="#FEB95A" stroke-width="2.042" stroke-linecap="round" stroke-linejoin="round"></path>
        </g>
        <g opacity="0.89">
            <path opacity="0.89"
                  d="M428.79 544.682C492.839 544.682 544.761 492.759 544.761 428.71C544.761 364.661 492.839 312.739 428.79 312.739C364.741 312.739 312.819 364.661 312.819 428.71C312.819 492.759 364.741 544.682 428.79 544.682Z"
                  stroke="#FEB95A" stroke-width="2.1786" stroke-linecap="round" stroke-linejoin="round"></path>
        </g>
        <g opacity="0.89">
            <path opacity="0.89"
                  d="M428.79 513.452C475.592 513.452 513.532 475.512 513.532 428.71C513.532 381.908 475.592 343.968 428.79 343.968C381.988 343.968 344.048 381.908 344.048 428.71C344.048 475.512 381.988 513.452 428.79 513.452Z"
                  stroke="#FEB95A" stroke-width="2.3152" stroke-linecap="round" stroke-linejoin="round"></path>
        </g>
    </g>
    <defs>
        <linearGradient id="paint0_linear" x1="428.79" y1="0.5" x2="428.79" y2="856.92" gradientUnits="userSpaceOnUse">
            <stop stop-color="#FEB95A"></stop>
            <stop offset="1" stop-color="#FEB95A" stop-opacity="0"></stop>
        </linearGradient>
        <linearGradient id="paint1_linear" x1="428.79" y1="31.7292" x2="428.79" y2="825.691"
                        gradientUnits="userSpaceOnUse">
            <stop stop-color="#FEB95A"></stop>
            <stop offset="1" stop-color="#FEB95A" stop-opacity="0"></stop>
        </linearGradient>
        <linearGradient id="paint2_linear" x1="428.79" y1="62.9586" x2="428.79" y2="794.462"
                        gradientUnits="userSpaceOnUse">
            <stop stop-color="#FEB95A"></stop>
            <stop offset="1" stop-color="#FEB95A" stop-opacity="0"></stop>
        </linearGradient>
        <linearGradient id="paint3_linear" x1="428.79" y1="94.1873" x2="428.79" y2="763.232"
                        gradientUnits="userSpaceOnUse">
            <stop stop-color="#FEB95A"></stop>
            <stop offset="1" stop-color="#FEB95A" stop-opacity="0"></stop>
        </linearGradient>
        <linearGradient id="paint4_linear" x1="428.79" y1="125.417" x2="428.79" y2="732.003"
                        gradientUnits="userSpaceOnUse">
            <stop stop-color="#FEB95A"></stop>
            <stop offset="1" stop-color="#FEB95A" stop-opacity="0"></stop>
        </linearGradient>
        <linearGradient id="paint5_linear" x1="428.79" y1="156.646" x2="428.79" y2="700.774"
                        gradientUnits="userSpaceOnUse">
            <stop stop-color="#FEB95A"></stop>
            <stop offset="1" stop-color="#FEB95A" stop-opacity="0"></stop>
        </linearGradient>
        <linearGradient id="paint6_linear" x1="428.79" y1="187.875" x2="428.79" y2="669.545"
                        gradientUnits="userSpaceOnUse">
            <stop stop-color="#FEB95A"></stop>
            <stop offset="1" stop-color="#FEB95A" stop-opacity="0"></stop>
        </linearGradient>
        <linearGradient id="paint7_linear" x1="428.79" y1="219.104" x2="428.79" y2="638.316"
                        gradientUnits="userSpaceOnUse">
            <stop stop-color="#FEB95A"></stop>
            <stop offset="1" stop-color="#FEB95A" stop-opacity="0"></stop>
        </linearGradient>
    </defs>
</svg>
